<svg xmlns="http://www.w3.org/2000/svg" viewBox="0 0 1400 108.23"><defs><style>.cls-1{fill:none;stroke:#d88e9b;stroke-miterlimit:10;stroke-width:2px;}.cls-2{fill:#fff;}.cls-3{fill:#d88e9b;}</style></defs><g id="Layer_2" data-name="Layer 2"><g id="レイヤー_1" data-name="レイヤー 1"><path class="cls-1" d="M0,27.23H473.28a20,20,0,0,1,0,40H460a20,20,0,1,0,0,40H1400"/><polygon class="cls-2" points="258.34 8.52 258.34 4.7 276.86 4.7 276.86 8.52 296.84 8.52 296.84 12.42 293.79 12.42 293.79 27.01 241.41 27.01 241.41 12.42 238.36 12.42 238.36 8.52 258.34 8.52"/><path class="cls-3" d="M294.58,27.8h-54V13.21h-3.05V7.72h20V3.91h20.1V7.72h20v5.49h-3.05ZM242.2,26.22H293V11.63h3.05V9.31h-20V5.49H259.13V9.31h-20v2.32h3Z"/><rect class="cls-2" x="282.74" y="16.89" width="4.78" height="7.55"/><path class="cls-3" d="M285.94,18.47v4.38h-1.61V18.47Zm1.58-1.58h-4.78v7.55h4.78V16.89Z"/><rect class="cls-2" x="276.78" y="16.89" width="4.78" height="7.55"/><path class="cls-3" d="M280,18.47v4.38h-1.62V18.47Zm1.58-1.58h-4.78v7.55h4.78V16.89Z"/><rect class="cls-2" x="253.22" y="16.89" width="4.78" height="7.55"/><path class="cls-3" d="M256.42,18.47v4.38H254.8V18.47ZM258,16.89h-4.78v7.55H258V16.89Z"/><rect class="cls-2" x="247.26" y="16.89" width="4.78" height="7.55"/><path class="cls-3" d="M250.45,18.47v4.38h-1.61V18.47ZM252,16.89h-4.77v7.55H252V16.89Z"/><rect class="cls-2" x="267.98" y="16.89" width="4.73" height="7.55"/><path class="cls-3" d="M271.12,18.47v4.38h-1.56V18.47Zm1.58-1.58H268v7.55h4.72V16.89Z"/><rect class="cls-2" x="262.09" y="16.89" width="4.72" height="7.55"/><path class="cls-3" d="M265.23,18.47v4.38h-1.56V18.47Zm1.58-1.58h-4.72v7.55h4.72V16.89Z"/><polygon class="cls-2" points="364.67 26.94 364.67 16.9 372.09 12.2 378.97 16.9 378.97 26.94 364.67 26.94"/><path class="cls-3" d="M379.83,27.8h-16V16.42l8.3-5.25,7.72,5.27Zm-14.3-1.72H378.1V17.35l-6-4.12-6.54,4.14Z"/><rect class="cls-2" x="372.21" y="19.57" width="3.17" height="5.07"/><polygon class="cls-3" points="375.39 19.57 372.21 19.57 372.21 24.64 375.39 24.64 375.39 19.57 375.39 19.57"/><rect class="cls-2" x="368.25" y="19.57" width="3.17" height="5.07"/><polygon class="cls-3" points="371.42 19.57 368.25 19.57 368.25 24.64 371.42 24.64 371.42 19.57 371.42 19.57"/><polygon class="cls-2" points="329.42 6.63 329.42 0.92 331.83 0.92 331.83 5.6 340.55 1.86 357.82 9.84 357.82 26.88 321.92 26.88 321.92 9.84 329.42 6.63"/><path class="cls-3" d="M358.74,27.8H321V9.23L328.5,6V0h4.24V4.21L340.56.86l18.18,8.39ZM322.83,26H356.9V10.43L340.53,2.87,330.91,7V1.84h-.58V7.23l-7.5,3.21Z"/><rect class="cls-2" x="337.34" y="14.63" width="5.06" height="8.09"/><path class="cls-3" d="M343.32,23.63h-6.9V13.71h6.9Zm-5.06-1.83h3.23V15.55h-3.23Z"/><rect class="cls-2" x="326" y="14.63" width="8.24" height="8.09"/><path class="cls-3" d="M335.15,23.63H325.08V13.71h10.07Zm-8.24-1.83h6.41V15.55h-6.41Z"/><rect class="cls-2" x="345.51" y="14.63" width="8.24" height="8.09"/><path class="cls-3" d="M354.67,23.63H344.59V13.71h10.08Zm-8.24-1.83h6.4V15.55h-6.4Z"/><path class="cls-2" d="M376.59,27s0-.05,0-.08a2.25,2.25,0,0,1,2.26-2.25H379a3.6,3.6,0,0,1,3.37-2.35,3.51,3.51,0,0,1,1.31.25,3.6,3.6,0,0,1,2.55-1.07A3.66,3.66,0,0,1,389.6,24h0a2.29,2.29,0,0,1,2.23,3Z"/><path class="cls-3" d="M392.47,27.8H375.81l0-.75s0-.09,0-.15a3.09,3.09,0,0,1,2.66-3,4.44,4.44,0,0,1,3.9-2.36,4.26,4.26,0,0,1,1.12.15,4.35,4.35,0,0,1,2.74-1,4.45,4.45,0,0,1,4,2.55,3.11,3.11,0,0,1,2.48,4ZM377.6,26.16h13.53a1.52,1.52,0,0,0-1.47-1.35H389l-.19-.56a2.85,2.85,0,0,0-2.65-2,2.76,2.76,0,0,0-2,.83l-.38.38-.5-.2a2.74,2.74,0,0,0-1-.19,2.8,2.8,0,0,0-2.6,1.81l-.21.57-.6,0h-.11A1.48,1.48,0,0,0,377.6,26.16Z"/><path class="cls-2" d="M302.22,14.36a4.51,4.51,0,0,1,2.6-4.1,6.32,6.32,0,0,1,12.29-.08,4.46,4.46,0,0,1,2.71,4.11c0,4.15-3.86,6.56-8.68,6.57C306.07,20.87,302.22,18.62,302.22,14.36Z"/><path class="cls-3" d="M311.1,21.72a12,12,0,0,1-6.81-1.8,6.5,6.5,0,0,1-2.94-5.56h0a5.44,5.44,0,0,1,2.73-4.69,6.91,6.91,0,0,1,2.55-3.76,7.31,7.31,0,0,1,4.3-1.41h0a7.35,7.35,0,0,1,4.27,1.35,7,7,0,0,1,2.6,3.72,5.33,5.33,0,0,1,2.84,4.72A6.47,6.47,0,0,1,318.77,19a10.62,10.62,0,0,1-7.63,2.72Zm-8-7.36a4.77,4.77,0,0,0,2.19,4.14A10.32,10.32,0,0,0,311.1,20h0a9.08,9.08,0,0,0,6.41-2.21A4.78,4.78,0,0,0,319,14.3a3.57,3.57,0,0,0-2.2-3.33l-.39-.17-.1-.42a5.45,5.45,0,0,0-10.61.07l-.09.41-.38.18a3.64,3.64,0,0,0-2.11,3.32Z"/><path class="cls-2" d="M311,12.18v0Z"/><path class="cls-3" d="M311,27.8a.87.87,0,0,1-.87-.86V12.18a.87.87,0,0,1,1.73,0V26.94A.87.87,0,0,1,311,27.8Z"/><path class="cls-2" d="M314.76,16.62l-3.54,2.05Z"/><path class="cls-3" d="M311.23,19.54a.88.88,0,0,1-.75-.43.86.86,0,0,1,.31-1.18l3.54-2.06a.86.86,0,0,1,.86,1.5l-3.53,2.05A.88.88,0,0,1,311.23,19.54Z"/><path class="cls-2" d="M310.65,16.56l-3.19-2.63Z"/><path class="cls-3" d="M310.65,17.42a.81.81,0,0,1-.54-.2l-3.2-2.62a.86.86,0,1,1,1.1-1.33l3.19,2.62a.86.86,0,0,1-.55,1.53Z"/></g></g></svg>