<svg xmlns="http://www.w3.org/2000/svg" viewBox="0 0 480 108.23"><defs><style>.cls-1{fill:none;stroke:#d88e9b;stroke-miterlimit:10;stroke-width:2px;}.cls-2{fill:#fff;}.cls-3{fill:#d88e9b;}</style></defs><g id="Layer_2" data-name="Layer 2"><g id="レイヤー_1" data-name="レイヤー 1"><path class="cls-1" d="M0,27.23H280.77a20,20,0,0,1,0,40H267.44a20,20,0,0,0,0,40H480"/><polygon class="cls-2" points="65.83 8.52 65.83 4.7 84.35 4.7 84.35 8.52 104.33 8.52 104.33 12.42 101.28 12.42 101.28 27.01 48.9 27.01 48.9 12.42 45.85 12.42 45.85 8.52 65.83 8.52"/><path class="cls-3" d="M102.07,27.8h-54V13.21h-3V7.72H65V3.91h20.1V7.72h20v5.49h-3.05ZM49.69,26.22h50.8V11.63h3.05V9.31h-20V5.49H66.62V9.31h-20v2.32h3Z"/><rect class="cls-2" x="90.23" y="16.89" width="4.78" height="7.55"/><path class="cls-3" d="M93.43,18.47v4.38H91.82V18.47ZM95,16.89H90.23v7.55H95V16.89Z"/><rect class="cls-2" x="84.27" y="16.89" width="4.78" height="7.55"/><path class="cls-3" d="M87.47,18.47v4.38H85.85V18.47Zm1.58-1.58H84.27v7.55h4.78V16.89Z"/><rect class="cls-2" x="60.71" y="16.89" width="4.78" height="7.55"/><path class="cls-3" d="M63.91,18.47v4.38H62.29V18.47Zm1.58-1.58H60.71v7.55h4.78V16.89Z"/><rect class="cls-2" x="54.75" y="16.89" width="4.78" height="7.55"/><path class="cls-3" d="M57.94,18.47v4.38H56.33V18.47Zm1.58-1.58H54.75v7.55h4.77V16.89Z"/><rect class="cls-2" x="75.47" y="16.89" width="4.73" height="7.55"/><path class="cls-3" d="M78.61,18.47v4.38H77.05V18.47Zm1.58-1.58H75.47v7.55h4.72V16.89Z"/><rect class="cls-2" x="69.58" y="16.89" width="4.72" height="7.55"/><path class="cls-3" d="M72.72,18.47v4.38H71.16V18.47Zm1.58-1.58H69.58v7.55H74.3V16.89Z"/><polygon class="cls-2" points="172.16 26.94 172.16 16.9 179.58 12.2 186.46 16.9 186.46 26.94 172.16 26.94"/><path class="cls-3" d="M187.32,27.8h-16V16.42l8.3-5.25,7.72,5.27ZM173,26.08h12.57V17.35l-6-4.12L173,17.37Z"/><rect class="cls-2" x="179.7" y="19.57" width="3.17" height="5.07"/><polygon class="cls-3" points="182.88 19.57 179.7 19.57 179.7 24.64 182.88 24.64 182.88 19.57 182.88 19.57"/><rect class="cls-2" x="175.74" y="19.57" width="3.17" height="5.07"/><polygon class="cls-3" points="178.91 19.57 175.74 19.57 175.74 24.64 178.91 24.64 178.91 19.57 178.91 19.57"/><polygon class="cls-2" points="136.91 6.63 136.91 0.92 139.32 0.92 139.32 5.6 148.04 1.86 165.31 9.84 165.31 26.88 129.41 26.88 129.41 9.84 136.91 6.63"/><path class="cls-3" d="M166.23,27.8H128.49V9.23L136,6V0h4.24V4.21L148.05.86l18.18,8.39ZM130.32,26h34.07V10.43L148,2.87,138.4,7V1.84h-.58V7.23l-7.5,3.21Z"/><rect class="cls-2" x="144.83" y="14.63" width="5.06" height="8.09"/><path class="cls-3" d="M150.81,23.63h-6.9V13.71h6.9Zm-5.06-1.83H149V15.55h-3.23Z"/><rect class="cls-2" x="133.49" y="14.63" width="8.24" height="8.09"/><path class="cls-3" d="M142.64,23.63H132.57V13.71h10.07ZM134.4,21.8h6.41V15.55H134.4Z"/><rect class="cls-2" x="153" y="14.63" width="8.24" height="8.09"/><path class="cls-3" d="M162.16,23.63H152.08V13.71h10.08Zm-8.24-1.83h6.4V15.55h-6.4Z"/><path class="cls-2" d="M184.08,27s0-.05,0-.08a2.25,2.25,0,0,1,2.26-2.25h.11a3.61,3.61,0,0,1,3.37-2.35,3.51,3.51,0,0,1,1.31.25,3.6,3.6,0,0,1,2.55-1.07,3.66,3.66,0,0,1,3.42,2.5h0a2.29,2.29,0,0,1,2.23,3Z"/><path class="cls-3" d="M200,27.8H183.3l0-.75s0-.09,0-.15a3.09,3.09,0,0,1,2.66-3,4.44,4.44,0,0,1,3.9-2.36,4.26,4.26,0,0,1,1.12.15,4.35,4.35,0,0,1,2.74-1,4.45,4.45,0,0,1,4,2.55,3.11,3.11,0,0,1,2.48,4Zm-14.87-1.64h13.53a1.52,1.52,0,0,0-1.47-1.35h-.64l-.19-.56a2.85,2.85,0,0,0-2.65-2,2.76,2.76,0,0,0-2,.83l-.38.38-.5-.2a2.74,2.74,0,0,0-1-.19,2.8,2.8,0,0,0-2.6,1.81l-.21.57-.6,0h-.11A1.48,1.48,0,0,0,185.09,26.16Z"/><path class="cls-2" d="M109.71,14.36a4.51,4.51,0,0,1,2.6-4.1,6.32,6.32,0,0,1,12.29-.08,4.46,4.46,0,0,1,2.71,4.11c0,4.15-3.86,6.56-8.68,6.57C113.56,20.87,109.71,18.62,109.71,14.36Z"/><path class="cls-3" d="M118.59,21.72a12,12,0,0,1-6.81-1.8,6.5,6.5,0,0,1-2.94-5.56h0a5.44,5.44,0,0,1,2.73-4.69,6.91,6.91,0,0,1,2.55-3.76,7.31,7.31,0,0,1,4.3-1.41h0a7.35,7.35,0,0,1,4.27,1.35,7,7,0,0,1,2.6,3.72,5.33,5.33,0,0,1,2.84,4.72A6.47,6.47,0,0,1,126.26,19a10.62,10.62,0,0,1-7.63,2.72Zm-8-7.36a4.77,4.77,0,0,0,2.19,4.14,10.32,10.32,0,0,0,5.83,1.5h0A9.08,9.08,0,0,0,125,17.79a4.78,4.78,0,0,0,1.41-3.49,3.57,3.57,0,0,0-2.2-3.33l-.39-.17-.1-.42a5.45,5.45,0,0,0-10.61.07l-.09.41-.38.18a3.64,3.64,0,0,0-2.11,3.32Z"/><path class="cls-2" d="M118.49,12.18v0Z"/><path class="cls-3" d="M118.49,27.8a.87.87,0,0,1-.87-.86V12.18a.87.87,0,0,1,1.73,0V26.94A.87.87,0,0,1,118.49,27.8Z"/><path class="cls-2" d="M122.25,16.62l-3.53,2.05Z"/><path class="cls-3" d="M118.72,19.54a.88.88,0,0,1-.75-.43.86.86,0,0,1,.31-1.18l3.54-2.06a.86.86,0,0,1,.86,1.5l-3.53,2.05A.88.88,0,0,1,118.72,19.54Z"/><path class="cls-2" d="M118.14,16.56,115,13.93Z"/><path class="cls-3" d="M118.14,17.42a.81.81,0,0,1-.54-.2l-3.2-2.62a.86.86,0,1,1,1.1-1.33l3.19,2.62a.86.86,0,0,1-.55,1.53Z"/></g></g></svg>