<svg xmlns="http://www.w3.org/2000/svg" viewBox="0 0 1400 108.23"><defs><style>.cls-2{fill:#fff}.cls-3{fill:#d88e9b}</style></defs><g id="Layer_2" data-name="Layer 2"><g id="レイヤー_1" data-name="レイヤー 1"><path d="M0 27.23h473.28a20 20 0 010 40H460a20 20 0 100 40h940" fill="none" stroke="#d88e9b" stroke-miterlimit="10" stroke-width="2"/><path class="cls-2" d="M258.34 8.52V4.7h18.52v3.82h19.98v3.9h-3.05v14.59h-52.38V12.42h-3.05v-3.9h19.98z"/><path class="cls-3" d="M294.58 27.8h-54V13.21h-3.05V7.72h20V3.91h20.1v3.81h20v5.49h-3.05zm-52.38-1.58H293V11.63h3.05V9.31h-20V5.49h-16.92v3.82h-20v2.32h3z"/><path class="cls-2" d="M282.74 16.89h4.78v7.55h-4.78z"/><path class="cls-3" d="M285.94 18.47v4.38h-1.61v-4.38zm1.58-1.58h-4.78v7.55h4.78v-7.55z"/><path class="cls-2" d="M276.78 16.89h4.78v7.55h-4.78z"/><path class="cls-3" d="M280 18.47v4.38h-1.62v-4.38zm1.58-1.58h-4.78v7.55h4.78v-7.55z"/><path class="cls-2" d="M253.22 16.89H258v7.55h-4.78z"/><path class="cls-3" d="M256.42 18.47v4.38h-1.62v-4.38zm1.58-1.58h-4.78v7.55H258v-7.55z"/><path class="cls-2" d="M247.26 16.89h4.78v7.55h-4.78z"/><path class="cls-3" d="M250.45 18.47v4.38h-1.61v-4.38zm1.55-1.58h-4.77v7.55H252v-7.55z"/><path class="cls-2" d="M267.98 16.89h4.73v7.55h-4.73z"/><path class="cls-3" d="M271.12 18.47v4.38h-1.56v-4.38zm1.58-1.58H268v7.55h4.72v-7.55z"/><path class="cls-2" d="M262.09 16.89h4.72v7.55h-4.72z"/><path class="cls-3" d="M265.23 18.47v4.38h-1.56v-4.38zm1.58-1.58h-4.72v7.55h4.72v-7.55z"/><path class="cls-2" d="M364.67 26.94V16.9l7.42-4.7 6.88 4.7v10.04h-14.3z"/><path class="cls-3" d="M379.83 27.8h-16V16.42l8.3-5.25 7.72 5.27zm-14.3-1.72h12.57v-8.73l-6-4.12-6.54 4.14z"/><path class="cls-2" d="M372.21 19.57h3.17v5.07h-3.17z"/><path class="cls-3" d="M375.39 19.57h-3.18v5.07h3.18v-5.07z"/><path class="cls-2" d="M368.25 19.57h3.17v5.07h-3.17z"/><path class="cls-3" d="M371.42 19.57h-3.17v5.07h3.17v-5.07z"/><path class="cls-2" d="M329.42 6.63V.92h2.41V5.6l8.72-3.74 17.27 7.98v17.04h-35.9V9.84l7.5-3.21z"/><path class="cls-3" d="M358.74 27.8H321V9.23L328.5 6V0h4.24v4.21l7.82-3.35 18.18 8.39zM322.83 26h34.07V10.43l-16.37-7.56L330.91 7V1.84h-.58v5.39l-7.5 3.21z"/><path class="cls-2" d="M337.34 14.63h5.06v8.09h-5.06z"/><path class="cls-3" d="M343.32 23.63h-6.9v-9.92h6.9zm-5.06-1.83h3.23v-6.25h-3.23z"/><path class="cls-2" d="M326 14.63h8.24v8.09H326z"/><path class="cls-3" d="M335.15 23.63h-10.07v-9.92h10.07zm-8.24-1.83h6.41v-6.25h-6.41z"/><path class="cls-2" d="M345.51 14.63h8.24v8.09h-8.24z"/><path class="cls-3" d="M354.67 23.63h-10.08v-9.92h10.08zm-8.24-1.83h6.4v-6.25h-6.4z"/><path class="cls-2" d="M376.59 27v-.08a2.25 2.25 0 012.26-2.25h.15a3.6 3.6 0 013.37-2.35 3.51 3.51 0 011.31.25 3.6 3.6 0 012.55-1.07 3.66 3.66 0 013.37 2.5 2.29 2.29 0 012.23 3z"/><path class="cls-3" d="M392.47 27.8h-16.66v-.9a3.09 3.09 0 012.66-3 4.44 4.44 0 013.9-2.36 4.26 4.26 0 011.12.15 4.35 4.35 0 012.74-1 4.45 4.45 0 014 2.55 3.11 3.11 0 012.48 4zm-14.87-1.64h13.53a1.52 1.52 0 00-1.47-1.35H389l-.19-.56a2.85 2.85 0 00-2.65-2 2.76 2.76 0 00-2 .83l-.38.38-.5-.2a2.74 2.74 0 00-1-.19 2.8 2.8 0 00-2.6 1.81l-.21.57h-.71a1.48 1.48 0 00-1.16.71z"/><path class="cls-2" d="M302.22 14.36a4.51 4.51 0 012.6-4.1 6.32 6.32 0 0112.29-.08 4.46 4.46 0 012.71 4.11c0 4.15-3.86 6.56-8.68 6.57-5.07.01-8.92-2.24-8.92-6.5z"/><path class="cls-3" d="M311.1 21.72a12 12 0 01-6.81-1.8 6.5 6.5 0 01-2.94-5.56 5.44 5.44 0 012.73-4.69 6.91 6.91 0 012.55-3.76 7.31 7.31 0 014.3-1.41 7.35 7.35 0 014.27 1.35 7 7 0 012.6 3.72 5.33 5.33 0 012.84 4.72 6.47 6.47 0 01-1.87 4.71 10.62 10.62 0 01-7.63 2.72zm-8-7.36a4.77 4.77 0 002.19 4.14 10.32 10.32 0 005.81 1.5 9.08 9.08 0 006.41-2.21A4.78 4.78 0 00319 14.3a3.57 3.57 0 00-2.2-3.33l-.39-.17-.1-.42a5.45 5.45 0 00-10.61.07l-.09.41-.38.18a3.64 3.64 0 00-2.11 3.32z"/><path class="cls-3" d="M311 27.8a.87.87 0 01-.87-.86V12.18a.87.87 0 011.73 0v14.76a.87.87 0 01-.86.86z"/><path class="cls-2" d="M314.76 16.62l-3.54 2.05z"/><path class="cls-3" d="M311.23 19.54a.88.88 0 01-.75-.43.86.86 0 01.31-1.18l3.54-2.06a.86.86 0 01.86 1.5l-3.53 2.05a.88.88 0 01-.43.12z"/><path class="cls-2" d="M310.65 16.56l-3.19-2.63z"/><path class="cls-3" d="M310.65 17.42a.81.81 0 01-.54-.2l-3.2-2.62a.86.86 0 111.1-1.33l3.19 2.62a.86.86 0 01-.55 1.53z"/></g></g></svg>